<svg id="icon_text" data-name="icon + text" xmlns="http://www.w3.org/2000/svg" viewBox="0 0 800 250"><title>Artboard 15</title><path d="M51.8,53.8V163.7h29V140.6l-1.5-2c-.6-.7-1-.2-1.5.3C69,147.5,67.4,160,61.8,160.1a101.3,101.3,0,0,1,11.3-26.7,10.5,10.5,0,0,0,1.2-8.6c-1.8-7.4-4.2-14.6-6.4-21.9-.7-2.6-3-1.3-4.6-1.5s-1.5,1.2-1.6,2.3v1.2c.1,1.3-.2,2.1-1.8,2.1s-2-.6-1.9-2a22.6,22.6,0,0,0,0-2.6c-.9.2-.5.8-.6,1.3a1.2,1.2,0,0,1-1.3,1,1.2,1.2,0,0,1-1.3-1.1c-.1-1-.1-2-1.3-2.4s-.2-.4-.3-.6c1.8-.7,1.2-2.7,2-3.9s1.7-.7,2.2.6a3.5,3.5,0,0,0,.6,1.8,28,28,0,0,0,0-2.9c0-1.4.6-1.9,1.9-1.9s1.8.6,1.9,1.9c.2,3.9.3,3.9,4.2,3.9H80.8V53.8Z" fill="#6a469c"/><path d="M78.4,101.4H71.5c-1.1,0-1.9.4-1.5,1.7,1.3,4,2.8,8,5.7,11.2,1.4,1.7,3.1,1.7,4.8.6l.3-.2v-3.1a2.5,2.5,0,0,1-2.2,1.3c-1.5,0-2.8-1.7-2.7-3.8s.6-3.2,2.6-3.3a2.4,2.4,0,0,1,2.3,1.7v-6.1Z" fill="#6a469c"/><path d="M40.3,92.2A3.8,3.8,0,0,0,44,88.3a4.1,4.1,0,0,0-3.9-3.9,4.3,4.3,0,0,0-3.9,3.8A4.2,4.2,0,0,0,40.3,92.2Z" fill="none"/><path d="M29.9,117.2c2.2.2,2.8-1.7,2.7-3.5s-.9-4.1-3.4-4.2-2.4,1.7-2.5,3.6S27.6,117.1,29.9,117.2Z" fill="none"/><path d="M39.6,136.5a6.4,6.4,0,0,1-1.4-5.5c.5-3,.5-6.1.8-9.1.5-7.2.5-14.5,2.2-21.6.2-.9.9-2-.3-3a5.9,5.9,0,0,0-1.6,3l-4.2,14.3a8.7,8.7,0,0,1-5.6,6.3,21.4,21.4,0,0,0-5.4,3.2c-4,3-6.9,6.9-7,12.4l3.5-4.8a17.8,17.8,0,0,1,5.8-5.1c1.3-.6,2.4-.7,2.9,1,1.1,3.4,2,6.9.7,10.6-3.7,10.4-7.3,20.9-11,31.3L17.5,174a115.1,115.1,0,0,0,8.2-13.2L35,144.3c1-1.9,1.9-1.8,3.2-.2s1.8,3.7.2,5.7l-7.9,9c-.7.8-1.6,1.3-1.6,3.1,6.5-3.7,12.5-7.2,16-13.8a3.8,3.8,0,0,0-.3-4.3C42.9,141.4,41.4,138.8,39.6,136.5Z" fill="none"/><path d="M16.7,67.3l-.2,110H45.6V67.4ZM40.1,84.4A4.1,4.1,0,0,1,44,88.3a3.8,3.8,0,0,1-3.7,3.9,4.2,4.2,0,0,1-4.1-4A4.3,4.3,0,0,1,40.1,84.4ZM29.2,109.5c2.5.1,3.3,2,3.4,4.2s-.5,3.7-2.7,3.5-3.1-2.1-3.2-4.1S27.1,109.4,29.2,109.5Zm14.7,39.3c-3.8,6.4-8.5,9.4-15,13.1,0-1.8.9-2.3,1.6-3.1l7.9-9c1.6-2,1.3-3.7-.2-5.7s-2.2-1.7-3.2.2l-9.3,16.5A115.1,115.1,0,0,1,17.5,174l1.5-4.5c3.7-10.4,7.3-20.9,11-31.3,1.3-3.7.4-7.2-.7-10.6-.5-1.7-1.6-1.6-2.9-1a17.8,17.8,0,0,0-5.8,5.1l-3.5,4.8c.1-5.5,3-9.4,7-12.4a21.4,21.4,0,0,1,5.4-3.2,8.7,8.7,0,0,0,5.6-6.3l4.2-14.3a5.9,5.9,0,0,1,1.6-3c1.2,1,.5,2.1.3,3-1.7,7.1-1.7,14.4-2.2,21.6-.3,3-.3,6.1-.8,9.1s.4,3.5,1.4,5.5a46.5,46.5,0,0,0,3.8,5.5A6.5,6.5,0,0,1,43.9,148.8Z" fill="#ffcc0c"/><path d="M129.9,126.1a1.8,1.8,0,0,0,.1-2.9c-3.3-3.1-3.7-3.6-7.3-.6l-.7.6V131l3.1-1.5A16.1,16.1,0,0,0,129.9,126.1Z" fill="#00b2d3"/><path d="M122,137.4v44.4h29V132.3c-4.4,2.1-8.6,4.5-13.2,6.2s-10.1,1.8-14.1.4a18.1,18.1,0,0,1,5.1-.4c4.3.1,8.2-1.5,11.9-3.4s6.3-3.2,9.8-3.8h.5v-2.1a84.6,84.6,0,0,0-11.5,4.9A31.3,31.3,0,0,1,122,137.4Z" fill="#00b2d3"/><path d="M122.1,71.9v46.6l2-1.6a4.1,4.1,0,0,1,4.6-.3,47.1,47.1,0,0,1,11.7,8.6c1.1,1.1,1.3,1.9-.6,2.5-4.8,1.4-9.1,4.4-14.2,5.2a13.6,13.6,0,0,1-3.5.1v1.4a29.1,29.1,0,0,0,14.6-3.5,29,29,0,0,1,14.4-3.6V71.9Zm28.8,51.9c-.1,1.1-1.2.8-2,.9l-5.4,1.6c-1.6.5-2.4-.1-2.1-1.9.4-3.3,5.8-5.5,8.4-3.5A2.8,2.8,0,0,1,150.9,123.8Z" fill="#00b2d3"/><path d="M157.2,85.3v63.6a19.1,19.1,0,0,1,1.6-3.2,14.4,14.4,0,0,1,20.1-3.5c3.3,2.3,4.8,3.3,7.4,3.1v-60Zm18.9,53.1c-2.4-.3-2.7-2.3-2.7-4.3s1.7-4.9,3.5-4.8,3,1.9,3.2,3.6S178.1,138.7,176.1,138.4Z" fill="#8bc63f"/><path d="M180.7,148.9c-3-1.7-2.7-1.6-4.3,1.6-4.4,9.3-1.9,9.2,3.6,14.1a12.2,12.2,0,0,1,4.7,9.4c.2,5.9-.8,12.5-.8,18.6a25.1,25.1,0,0,1-3.3-12c-.6-10.5-3.7-10.1-8.9-13.2s-6.9-6-5-13.1c.6-2.2,1.3-4.4,1.7-6.6s-.4-3.3-3-2.3a12.1,12.1,0,0,0-6.7,6.6c-.5,1-.7,2.1-1.6,2.8v15.5l3.1,2c3,2.1,3,2.1,3.7-1.6l.3-1.4c.6-1.6.1-4.5,1.6-4.5s3.2,2.3,4.7,3.7a1.3,1.3,0,0,1,.3,1.3c-1.2,3.4-1.9,7-4.4,9.8a3.9,3.9,0,0,1-5.2,1l-.5-.2-3.6-4.2v19h29V150.1A11,11,0,0,1,180.7,148.9Z" fill="#8bc63f"/><path d="M86.9,79.4v83.2c.4-3,.9-5.6,4.4-6.8a14.1,14.1,0,0,1,12.6,1.6c1.1.7,1.1,2.1,1.3,3.3s.2,2.9.4,4.3c1,5.7,3.7,9.9,9.7,11.4l.6.2V79.5Zm8.7,73.9c-2.4,0-4.2-2-4.2-4.8s1.9-5.1,4.3-5.1,4,2.2,4,5.1S98,153.3,95.6,153.3Z" fill="#ea3f32"/><path d="M109,186.8a49.1,49.1,0,0,0-8.6-.7c-2.3.1-5.4,1-7.7,1.1,3.5-2.6,6.3-3.6,10.6-3.2,1,.1,3.3.5,3.7-.7s-.9-2-1.7-2.5a23.6,23.6,0,0,0-2.8-1.2c-.1,0-.7-.3-.7-.5l3.9-.4a24.2,24.2,0,0,1,6.6.5l2,.6,1.5.5a1.4,1.4,0,0,0-.6-1.2,4.9,4.9,0,0,0-2.1-.8c-1.6-.2-7.1-2.3-7.9-3.4s-2.7-7.8-3.3-9.6l-.3-.7a7.2,7.2,0,0,0-.8,3.5,9.5,9.5,0,0,0,.9,3c.5,1.2,1.2,2.2,1.6,3.4s.9,2.3-.1,2.9-4,1.1-3.8,1.9,6,1.5,5.7,3.2-2.9.4-4.4.7a21.1,21.1,0,0,0-8.9,2.8,20.1,20.1,0,0,1-5,2.2v1.2h29v-5.2C114.8,186.4,111.7,187.1,109,186.8Zm-2-8.1h0Zm-.9,0h0Z" fill="#ea3f32"/><path d="M89.1,174.7c1.1-3.1,2.4-6.1,1.5-9.7a15.6,15.6,0,0,0-2.3,6.3,9.6,9.6,0,0,1-1.5,3.7v2.7C88,177.2,88.6,176.2,89.1,174.7Z" fill="#ea3f32"/><path d="M215.4,143c-1.1-.7-1.8-.5-2.2,1.1s-1.1,4.2-1.7,6.4-.4,1.9-1.4,1.7,1.2-5.7,1.8-8.5c.2-1.2.3-1.9,0-2.2l-2.4-.3a10.4,10.4,0,0,0-4.9,1.2h-.3a10.6,10.6,0,1,0,15.8,9.3A10.4,10.4,0,0,0,215.4,143Z" fill="#f29323"/><path d="M211.9,139.9c.5,0,.8-.3,1-.9v-.2l.4-.6a5.1,5.1,0,0,0,.7-2.8,3.3,3.3,0,0,0-.6-1.9,7.2,7.2,0,0,0-1.1-1.5c-2.1-2.1-2.6-5.2-3.2-8-.1-.7,0-1.5-1-1.3s-4.1-.6-6.1-1.2l-.9-.2h0l-1.7-.4-1.2-.2a2,2,0,0,0-1.7.8c-.8,1-.2,2,.4,2.9s1.4,2.5,2,3.8,1,4.1-.4,6-.5,1.4.7,1.5,3.2-.1,2.9-1.9l-.3-1.3a10.9,10.9,0,0,0-.5-1.7c-.7-1.7-1.6-3.3-2.3-4.9s-.8-1.3-.2-1.8,1,0,1.5.4h.2l1.9,1.6a10.1,10.1,0,0,1,3.2,7.7c0,1.2.3,1.6,1.6,1.5h5a.7.7,0,0,1,.5.9c0,.9-.7.9-1.3.9h-2.8l-1.9.2c-1.9.2-2.2.8-3.3,3.9a12.6,12.6,0,0,1,6.1-1.6Z" fill="#f29323"/><path d="M192.4,56.3v59.5l.8-.4a11.1,11.1,0,0,1,4.4-.8,35.2,35.2,0,0,1,10.7,1.7c3.9,1,5.1,2.4,5,6.4a17.3,17.3,0,0,0,.5,5.1,24.1,24.1,0,0,0,1.6,4.2l1.5,3.1h0c.2.5.4,1.1-.4,1.5l-.4.3a5,5,0,0,0-1.5,1.3c-.6,1,0,2.1,1.6,3.3l.9.7,1.4,1.3h0l.6.6.3.4.3.4.5.9h.1l.4.9h.1l.3,1.1c.1,0,.1.1.1.2a6.4,6.4,0,0,1,.2.7V56.3Zm26.7,64.3c-.8,1.7-2.4,2.4-3.8,1.7s-1.8-2.4-.9-4,2.6-2.5,3.8-1.7A3,3,0,0,1,219.1,120.6Z" fill="#f29323"/><path d="M192.9,133.7h.3c.6,0,.7-.6,1-1s.4-2.9-.6-4.1l-1.3-1.8v6.1a2.1,2.1,0,0,0,.4.6Z" fill="#f29323"/><path d="M219.5,158.6a10.4,10.4,0,0,1-3.9,3.6,12.1,12.1,0,0,1-5.3,1.6h-.9a12,12,0,0,1-4.2-.8,11.5,11.5,0,0,1-4.7-3.3l-.2-.2-.3-.4-.5-.6-.2-.3-.3-.6-.2-.4-.4-.7c0-.1,0-.2-.1-.2a11.6,11.6,0,0,1-.7-6.4,4.1,4.1,0,0,1,.3-1.6,12.7,12.7,0,0,1,1.8-3.7c.8-1.8,2.3-3.8,2.5-5.6s-.2-1.9-1.6-1.8h-3.8c-2.1,0-3.5.9-3.9,3.1l-.6,1.9v23.8h29V154.5a12.2,12.2,0,0,1-1.6,3.7C219.7,158.3,219.6,158.4,219.5,158.6Z" fill="#f29323"/><path d="M254.9,88.5a35.1,35.1,0,0,1,8.3-3.2A103,103,0,0,1,274.3,83c4-.7,7.8-1.2,11.5-1.6l9.8-.9,5.6-.3,4.4.2a27.7,27.7,0,0,1,5,1,11.9,11.9,0,0,1,4.2,2.1,4.4,4.4,0,0,1,1.7,3.5c-7.4,0-14.7.2-21.9.5a132.4,132.4,0,0,0-21.5,3,11.6,11.6,0,0,0-3.6,1.4l-3.9,2-3.8,1.8a9.7,9.7,0,0,1-3.4.8l-2-.3-2.3-.7a5.7,5.7,0,0,1-1.8-1.2,2.2,2.2,0,0,1-.7-1.7C251.6,91.1,252.7,89.7,254.9,88.5Zm14.8,13.1a7,7,0,0,1,3.3-1,4.4,4.4,0,0,1,2.9,1.2,14.2,14.2,0,0,1,2.8,3.1,27.5,27.5,0,0,1,2.6,4.2l2.4,4.5c.8,1.6,1.5,3,2.3,4.4a17.8,17.8,0,0,0,2,3.2,6.9,6.9,0,0,1-1.2,1.9,6,6,0,0,1-1.5.9,5.8,5.8,0,0,1-1.9.3h-2.1a7.5,7.5,0,0,1-4-1.2,12.8,12.8,0,0,1-3.3-2.9,28.5,28.5,0,0,1-2.6-4.1,42.2,42.2,0,0,1-1.8-4.5q-.7-2.2-1.2-4.2a21.1,21.1,0,0,1-.3-3.2A3.1,3.1,0,0,1,269.7,101.6Z" fill="gray"/><path d="M308.6,108.6c0-.3,0-.5.1-.5l1.2-1.3,1.9-1.8,2-1.7,1.5-1.1V84a7.4,7.4,0,0,1,4.8,1.3,9.2,9.2,0,0,1,2.4,3.4,31.5,31.5,0,0,1,1.1,4.4,21.2,21.2,0,0,0,1.1,4.5,8.7,8.7,0,0,0,2.2,3.4c1,.9,2.5,1.3,4.6,1.3h1.8l2.9-.2,2.7-.4c.8-.3,1.1-.6,1.1-.9V85.2a8.8,8.8,0,0,1,5.2,1.3,7.4,7.4,0,0,1,2.7,3.1,35.4,35.4,0,0,1,1.9,3.9,11.5,11.5,0,0,0,2.6,4,11.8,11.8,0,0,0,4.9,3.1,25.5,25.5,0,0,0,8.8,1.2,2,2,0,0,1-.9,1.8,5.2,5.2,0,0,1-2.1,1.1l-2.7.7a12.2,12.2,0,0,0-2.7.9,6,6,0,0,0-2.1,1.4,3.4,3.4,0,0,0-.8,2.5,5.8,5.8,0,0,0,1.1,3.1l2.5,2.9,2.4,2.6a2.7,2.7,0,0,1,.7,2.4,4,4,0,0,1-1,1.7,3.1,3.1,0,0,1-1.3,1,4.1,4.1,0,0,1-1.6.3h-1.7a9.7,9.7,0,0,1-4.9-1,10.5,10.5,0,0,1-3-2.5,22,22,0,0,1-2.1-3.2,18.1,18.1,0,0,0-2-3.3,9.7,9.7,0,0,0-2.8-2.5,8,8,0,0,0-4.4-1c-2.3,0-3.9.3-4.8,1a4,4,0,0,0-1.6,2.5,11.3,11.3,0,0,0-.1,3.2,7.2,7.2,0,0,1-.2,3.3,4.4,4.4,0,0,1-1.9,2.4c-1,.7-2.8,1-5.4,1h-.8a5.8,5.8,0,0,1-3-1.9,27.7,27.7,0,0,1-2.2-3.1c-.8-1.1-1.6-2.3-2.6-3.5a12.2,12.2,0,0,0-3.8-3.2c-.9-.6-1.4-1-1.5-1.3a4.2,4.2,0,0,1-.3-1.8A2.8,2.8,0,0,1,308.6,108.6Z" fill="gray"/><path d="M364.8,88.9a12.8,12.8,0,0,1,2.6-1.6,30.4,30.4,0,0,1,3.6-1.2l3.8-.7a22.1,22.1,0,0,1,3.3-.5l2.2-.3,3-.4,4.7-.5,5.5-.6,5.5-.6,4.6-.5,3.1-.3q1.4.5,1.5,1.2a4.7,4.7,0,0,1,.3,1.7,4.8,4.8,0,0,1-.3,1.8c-.1.5-.6.9-1.5,1.1L404,88l-4.1.8-4.8.9-4.8.9-4,.8-2.7.5a6.8,6.8,0,0,0-1.7.7l-2.1,1.1a14.1,14.1,0,0,0-1.8,1.4,2.7,2.7,0,0,0-1,1.3c-.1.2,0,.5,0,.8l.4.9.6.8c.3.2.5.4.7.4h27l1,.5a3.1,3.1,0,0,1,1,.5l.7.4a3.5,3.5,0,0,0,.1.6c0,.1-.1.2-.1.4v.4l-.8.7-.9.7-2.7.3-4.1.5-4.8.6-4.8.6-4,.6-2.7.4a7.8,7.8,0,0,0-3.5,1.5,3.8,3.8,0,0,0-1.6,2.9,4.2,4.2,0,0,0,2.1,3.8,15,15,0,0,0,4.8,1.7,34.3,34.3,0,0,0,5.6.5h4.6a20.4,20.4,0,0,0,4.4-.5l4.1-1.1,4.1-1.1a19.5,19.5,0,0,1,4.3-.5h2.4a1.9,1.9,0,0,1,1.7,1.5,19.3,19.3,0,0,1-5.3,4.6,28.7,28.7,0,0,1-6.5,2.7,41.7,41.7,0,0,1-7.2,1.4,61.2,61.2,0,0,1-7.4.1,57,57,0,0,1-10.9-1.4,21.7,21.7,0,0,1-7-2.9,11.5,11.5,0,0,1-4-4.5,17.5,17.5,0,0,1-2.1-6.1,71.7,71.7,0,0,1-1.2-7.8,96.6,96.6,0,0,0-1.2-9.6v-.3a1.1,1.1,0,0,1-.1-.5A3.1,3.1,0,0,1,364.8,88.9Z" fill="gray"/><path d="M420.4,54.5c2.6-2.3,6.9-3.4,12.8-3.4a47.4,47.4,0,0,1,14.6,2.2,69.6,69.6,0,0,1,13.4,5.8,90.7,90.7,0,0,1,12,8.2c3.8,3.1,7.2,6.2,10.5,9.4,0,.3.1.8.2,1.6a6.4,6.4,0,0,1,.2,1.6,9.5,9.5,0,0,1-2.9,7.3,22.5,22.5,0,0,1-7.2,5,68.1,68.1,0,0,1-9.6,3.6l-9.7,3.1a56,56,0,0,0-7.9,3.2c-2.2,1.2-3.5,2.7-3.9,4.4s0,.5.2,1.2l.9,2,.9,2c.2.7.4,1,.4,1.2v1.4a4.1,4.1,0,0,1,.1,1.1v.8c0,2.1-.5,3.5-1.3,4.3s-2.5,1.1-4.8,1.1a10.3,10.3,0,0,1-7.5-3.3,33,33,0,0,1-5.9-8.8,76.9,76.9,0,0,1-4.3-11.8c-1.2-4.3-2.2-8.6-3-12.7s-1.3-7.9-1.7-11.4-.5-6.1-.5-7.9C416.4,60.4,417.7,56.7,420.4,54.5Zm10.7,21.8a39.3,39.3,0,0,0,1.5,6.8,30.5,30.5,0,0,0,3,6.3,13.4,13.4,0,0,0,4.8,4.4l6.9-2a77,77,0,0,0,8.8-3.1,39.8,39.8,0,0,0,7.7-4.3c2.2-1.6,3.3-3.4,3.3-5.5s-1.1-4.4-3.3-6.3a38.5,38.5,0,0,0-8-4.8,52,52,0,0,0-9.7-3,40.1,40.1,0,0,0-8.2-1l-3.7.2a3.4,3.4,0,0,0-2.1.9,3.6,3.6,0,0,0-1.1,2,13.9,13.9,0,0,0-.3,3.2A48,48,0,0,0,431.1,76.3Z" fill="#00b2d3"/><path d="M488.6,82.1a14.9,14.9,0,0,1-.4-3.3,10.1,10.1,0,0,1,.3-2.5c.1-.7.9-1.3,2.2-1.7q19.8-3.9,39.3-6.3A347.4,347.4,0,0,1,569.8,66h9.5l2.5,2.1-2.5,2c-1.4,1.3-3.5,2.2-6.4,2.9s-6.1,1.1-9.7,1.5l-11,1a93.8,93.8,0,0,0-10.4,1.4,26,26,0,0,0-7.6,2.5,5.1,5.1,0,0,0-3,4.6,19.9,19.9,0,0,0,1.6,7.9c1,2.5,2.2,5,3.4,7.4s2.5,5,3.5,7.5a19.6,19.6,0,0,1,1.6,7.9c0,2.4-.3,4.1-1,5.2s-2.4,1.5-5.2,1.5a10.8,10.8,0,0,1-6.6-1.8,14.9,14.9,0,0,1-4-4.9,37.4,37.4,0,0,1-2.5-6.7c-.6-2.4-1.3-4.9-2.1-7.4a57.8,57.8,0,0,0-3.1-7.2,18.1,18.1,0,0,0-5-5.7,21.4,21.4,0,0,0-8.4-3.2,40.7,40.7,0,0,0-12.7.6A9.6,9.6,0,0,1,488.6,82.1Z" fill="#00b2d3"/><path d="M571,101.7a73,73,0,0,1,1-9.4,47.5,47.5,0,0,1,2.5-8.6,20.9,20.9,0,0,1,4.7-7.2,21.5,21.5,0,0,1,7.4-5,29.3,29.3,0,0,1,10.9-1.8,33.5,33.5,0,0,1,7.1.7,20.9,20.9,0,0,1,6.4,2.1,11.9,11.9,0,0,1,4.5,4.1,11.4,11.4,0,0,1,1.8,6.6,15.7,15.7,0,0,1-1.7,7.3,24.8,24.8,0,0,1-4.2,5.7,40.6,40.6,0,0,1-5.5,4.6c-2,1.4-3.9,2.7-5.5,4a26.3,26.3,0,0,0-4.2,3.7,5.4,5.4,0,0,0-1.7,4h42.4l-5,2.9-1.6.5-3.5.7-4.6.9-5,1-4.7.8-3.6.5-2.9.2-4.4.4-5.1.2-5.2.3-4.4.3H584a12,12,0,0,1-1.7,1.6,7.5,7.5,0,0,1-1.7,1l-1.8.4h-2.1c-1.8,0-3.2-.4-4-1.4a6.5,6.5,0,0,1-1.7-3.3,15.8,15.8,0,0,1-.3-4.4c0-1.5.1-3,.1-4.2C570.8,108,570.9,104.9,571,101.7Zm22.8-24.3a17.3,17.3,0,0,0-4.7,1.5,9,9,0,0,0-3.6,2.7A6.7,6.7,0,0,0,584,86v19.1c0,.1.3.4.7.8l1,.7h1.7l1.9-1,2.6-1.3,2.4-1.3,1.3-.8,2.7-2.3c1.3-1,2.6-2.2,4.1-3.5l3.9-3.6,2.6-2.4a3.6,3.6,0,0,1,.3-1.1c.2-.6.3-1.2.5-1.8a8.4,8.4,0,0,1,.5-1.7,5,5,0,0,1,.3-1.2v-.4a1.1,1.1,0,0,0,.1-.5.4.4,0,0,0-.1-.3v-.3c-1.4-1.5-2.5-2.7-3.2-3.6a10.9,10.9,0,0,0-2.2-1.8,5.1,5.1,0,0,0-2.5-.6h-4.1A27.1,27.1,0,0,0,593.8,77.4Z" fill="gray"/><path d="M629,104.1a22.8,22.8,0,0,1,3.8-6.8,20.5,20.5,0,0,1,6.3-4.9,18.6,18.6,0,0,1,8.7-1.9,13.7,13.7,0,0,1,6.6,1.8,24,24,0,0,1,5.9,4.6,26.5,26.5,0,0,1,4.2,5.9,12.4,12.4,0,0,1,1.6,5.7,11.2,11.2,0,0,1-2.3,7.1,16.2,16.2,0,0,1-5.8,4.5,32.5,32.5,0,0,1-8,2.4,49.6,49.6,0,0,1-8.5.7h-1.7l-2.3-.2h-1.9l-1-.2-6.6-5.9a1.5,1.5,0,0,1-.1-.6,8.6,8.6,0,0,0-.1-1.5V113a8.6,8.6,0,0,1-.1-1.5A21.8,21.8,0,0,1,629,104.1Zm7.9,9.5a6.3,6.3,0,0,0,2.2,2.1,9.6,9.6,0,0,0,3,1,19.7,19.7,0,0,0,3.5.4l4-.3a17.6,17.6,0,0,0,4.1-1,6.9,6.9,0,0,0,3-2,5.5,5.5,0,0,0,1.3-3.6,5.6,5.6,0,0,0-1.5-3.6,16.6,16.6,0,0,0-3.4-3,18.8,18.8,0,0,0-4.5-2.2,14.6,14.6,0,0,0-4.2-.8,6.5,6.5,0,0,0-3.4,1,10.7,10.7,0,0,0-2.7,2.5,12.3,12.3,0,0,0-1.7,3.2,9.5,9.5,0,0,0-.6,3.2A5.2,5.2,0,0,0,636.9,113.6Z" fill="gray"/><path d="M670.2,104.1a25.2,25.2,0,0,1,3.8-6.8,20.5,20.5,0,0,1,6.3-4.9,18.6,18.6,0,0,1,8.7-1.9,13.8,13.8,0,0,1,6.7,1.8,23.5,23.5,0,0,1,5.8,4.6,21.3,21.3,0,0,1,4.2,5.9,12.6,12.6,0,0,1,1.7,5.7,11.2,11.2,0,0,1-2.3,7.1,16.6,16.6,0,0,1-5.9,4.5,31.7,31.7,0,0,1-7.9,2.4,50.4,50.4,0,0,1-8.5.7H681l-2.2-.2h-2l-1-.2-6.6-5.9a2.8,2.8,0,0,0-.1-.6v-1.5a10.3,10.3,0,0,1-.1-1.7c0-.6-.1-1.1-.1-1.5A24.5,24.5,0,0,1,670.2,104.1Zm7.9,9.5a6.3,6.3,0,0,0,2.2,2.1,9.6,9.6,0,0,0,3,1,20.9,20.9,0,0,0,3.5.4l4.1-.3a16.7,16.7,0,0,0,4-1,7.2,7.2,0,0,0,3.1-2,5.4,5.4,0,0,0,1.2-3.6,6.1,6.1,0,0,0-1.4-3.6,17.2,17.2,0,0,0-3.5-3,18.8,18.8,0,0,0-4.5-2.2,14,14,0,0,0-4.2-.8,6.7,6.7,0,0,0-3.4,1,10.3,10.3,0,0,0-2.6,2.5,12.3,12.3,0,0,0-1.7,3.2,9.5,9.5,0,0,0-.6,3.2A5.9,5.9,0,0,0,678.1,113.6Z" fill="gray"/><path d="M752.4,107.3c-1.4,1.5-2.7,3.2-4.1,4.9s-2.6,3.4-4,5a19.7,19.7,0,0,1-4.2,4l-.8.2h-.8a6.2,6.2,0,0,1-3.8-1.4,29.9,29.9,0,0,1-3.8-3.4q-1.8-1.9-3.3-3.9c-1-1.4-1.8-2.4-2.3-3.2h-.9a2.2,2.2,0,0,0-2.1,1.1,6.7,6.7,0,0,0-.9,2.4c-.1,1-.3,2.1-.4,3.2a8.5,8.5,0,0,1-.9,3.2,6.5,6.5,0,0,1-2.2,2.5,7.4,7.4,0,0,1-4.3,1,4.6,4.6,0,0,1-2.3-.5c-.6-.3-.9-1.1-.9-2.5V93.4a4.8,4.8,0,0,1,1-2.3,13.6,13.6,0,0,1,2.4-2.4,22,22,0,0,1,3-1.9,6.3,6.3,0,0,1,2.7-.8,7.6,7.6,0,0,1,5,1.7,15.9,15.9,0,0,1,3.6,4.1,29.6,29.6,0,0,1,2.8,5.3c.9,1.9,1.7,3.7,2.6,5.3a18.4,18.4,0,0,0,2.8,4.1,5,5,0,0,0,3.8,1.7h1.7c.3-.4.7-1.2,1.3-2.3s1.3-2.3,2-3.6,1.4-2.4,2-3.6l1.2-2.3a12.3,12.3,0,0,0,1.1-2.7,24.8,24.8,0,0,1,1.3-3.5,10,10,0,0,1,2-2.9,3.6,3.6,0,0,1,2.9-1.3,5.9,5.9,0,0,1,3.9,1.3,13.1,13.1,0,0,1,3.2,3.4,28.4,28.4,0,0,1,2.4,4.6c.7,1.7,1.3,3.4,1.9,5s1.1,3.1,1.5,4.5a12.7,12.7,0,0,0,1.3,3.4,11.1,11.1,0,0,0,2.5,3l3.4,2.8a19.4,19.4,0,0,1,2.9,2.8,4.4,4.4,0,0,1,1.3,3,3.8,3.8,0,0,1-.6,2.2,4,4,0,0,1-1.5,1.4,4.9,4.9,0,0,1-2.1.8l-2.4.2a8.2,8.2,0,0,1-4.7-1.2,8.7,8.7,0,0,1-2.8-3.2,15,15,0,0,1-1.8-4.3c-.5-1.6-1.1-3.2-1.7-4.7a28.6,28.6,0,0,0-2.1-4.3,9.7,9.7,0,0,0-3.6-3A16,16,0,0,0,752.4,107.3Z" fill="gray"/><line x1="251.8" y1="145.8" x2="787" y2="142.2" fill="gray" stroke="gray" stroke-miterlimit="10"/><path d="M273.6,190.9v-14c0-.3.1-1.3.2-2.9h-.1l-.7,1.7-7,15.2h-.5l-7-15.1-.6-1.8h-.1a21.7,21.7,0,0,1,.1,2.6v14.3h-1.4V171.2h1.3l7.3,15.9.2.4c.1.1.1.3.2.4l.3.8h.1v-.4c0-.1.2-.5.5-1.3l7.2-15.8h1.2v19.7Z" fill="gray"/><path d="M292.8,190.9l-2.2-6.1H282l-2.2,6.1h-1.5l7.4-19.7H287l7.4,19.7Zm-6-16.5-.3-.8a1.9,1.9,0,0,0-.2-.7h0a13.1,13.1,0,0,1-.5,1.5l-3.3,9.1h7.6Z" fill="gray"/><path d="M297.1,190.2v-1.5a7.7,7.7,0,0,0,4.3,1.3,5.8,5.8,0,0,0,3.5-.9,3.4,3.4,0,0,0,1.2-2.7,3.6,3.6,0,0,0-.8-2.4,15.9,15.9,0,0,0-3.5-2.5c-2-1.2-3.3-2.1-3.8-2.9a4.3,4.3,0,0,1-.8-2.7,4.6,4.6,0,0,1,1.6-3.6,6.5,6.5,0,0,1,4.3-1.4,11.3,11.3,0,0,1,3.6.6v1.4a9.5,9.5,0,0,0-3.7-.8,4.6,4.6,0,0,0-3.2,1,3.4,3.4,0,0,0-1.2,2.6,3.6,3.6,0,0,0,.8,2.4,14.1,14.1,0,0,0,3.5,2.4,16.5,16.5,0,0,1,3.7,2.8,4.7,4.7,0,0,1,.9,2.8,4.9,4.9,0,0,1-1.6,3.7,6.3,6.3,0,0,1-4.5,1.5,7.4,7.4,0,0,1-2.3-.4A5.7,5.7,0,0,1,297.1,190.2Z" fill="gray"/><path d="M311.1,190.2v-1.5a7.7,7.7,0,0,0,4.3,1.3,5.8,5.8,0,0,0,3.5-.9,3.4,3.4,0,0,0,1.2-2.7,3.6,3.6,0,0,0-.8-2.4,15.9,15.9,0,0,0-3.5-2.5c-2-1.2-3.3-2.1-3.8-2.9a4.3,4.3,0,0,1-.8-2.7,4.6,4.6,0,0,1,1.6-3.6,6.5,6.5,0,0,1,4.3-1.4,11.3,11.3,0,0,1,3.6.6v1.4a9.5,9.5,0,0,0-3.7-.8,4.6,4.6,0,0,0-3.2,1,3.4,3.4,0,0,0-1.2,2.6,3.6,3.6,0,0,0,.8,2.4,14.1,14.1,0,0,0,3.5,2.4,13.5,13.5,0,0,1,3.6,2.8,4.2,4.2,0,0,1,1,2.8,4.9,4.9,0,0,1-1.6,3.7,6.3,6.3,0,0,1-4.5,1.5,7.4,7.4,0,0,1-2.3-.4A5.7,5.7,0,0,1,311.1,190.2Z" fill="gray"/><path d="M338.5,190.9l-2.2-6.1h-8.6l-2.2,6.1H324l7.4-19.7h1.3l7.3,19.7Zm-6-16.5-.3-.8a1.9,1.9,0,0,0-.2-.7h0a13.1,13.1,0,0,1-.5,1.5l-3.3,9.1h7.6Z" fill="gray"/><path d="M357.1,189.5a12.3,12.3,0,0,1-6.3,1.8,8.4,8.4,0,0,1-6.5-2.8,10,10,0,0,1-2.5-7.2,10.7,10.7,0,0,1,2.7-7.4,9.1,9.1,0,0,1,7.1-3,12.5,12.5,0,0,1,5.1,1v1.5a11.5,11.5,0,0,0-5.3-1.3,7.6,7.6,0,0,0-5.9,2.6,9.1,9.1,0,0,0-2.3,6.4,9.7,9.7,0,0,0,2.1,6.6A7.5,7.5,0,0,0,351,190a9.9,9.9,0,0,0,4.7-1.1v-6.5h-4.6v-1.3h6Z" fill="gray"/><path d="M361.6,190.9V171.2h9.2v1.3H363v7.9h7.3v1.2H363v8.1h8.3v1.2Z" fill="gray"/><path d="M388.8,172.5v18.4h-1.4V172.5h-5.7v-1.3h12.8v1.3Z" fill="gray"/><path d="M410.5,190.9v-9.4H399.2v9.4h-1.4V171.2h1.4v9h11.3v-9h1.3v19.7Z" fill="gray"/><path d="M416.9,190.9V171.2h9.2v1.3h-7.9v7.9h7.3v1.2h-7.3v8.1h8.3v1.2Z" fill="gray"/><path d="M441,190.9l-2.6-5.8a8.3,8.3,0,0,0-1.6-2.4,3.2,3.2,0,0,0-2-.6h-2.5v8.8H431V171.2h5.4a5.8,5.8,0,0,1,4.1,1.4,4.8,4.8,0,0,1,1.5,3.7,5.4,5.4,0,0,1-1.2,3.6,5.6,5.6,0,0,1-3.4,1.8h0c.8.3,1.5,1.2,2.3,2.8l2.9,6.3Zm-8.7-18.4v8.4h3.4a5.2,5.2,0,0,0,3.6-1.2,4.1,4.1,0,0,0,1.3-3.2,3.8,3.8,0,0,0-1.2-3,4.9,4.9,0,0,0-3.4-1Z" fill="gray"/><path d="M459.4,190.9l-2.2-6.1h-8.6l-2.2,6.1h-1.5l7.4-19.7h1.3l7.4,19.7Zm-6-16.5-.3-.8a1.9,1.9,0,0,0-.2-.7h0a13.1,13.1,0,0,1-.5,1.5l-3.3,9.1h7.6Z" fill="gray"/><path d="M465.7,183v7.9h-1.4V171.2H469a7.1,7.1,0,0,1,4.7,1.4,5,5,0,0,1,1.6,4.1,5.8,5.8,0,0,1-1.8,4.5,6.8,6.8,0,0,1-5,1.8Zm0-10.5v9.3h2.8a6,6,0,0,0,4-1.3,4.9,4.9,0,0,0,1.4-3.6c0-3-1.7-4.4-5.1-4.4Z" fill="gray"/><path d="M485.3,183.4v7.5H484v-7.4l-6.1-12.3h1.5l4.6,9.5a11.3,11.3,0,0,1,.7,1.5h0a9.3,9.3,0,0,1,.7-1.5l4.8-9.5h1.5Z" fill="gray"/><path d="M517.3,190.9l-2.6-2.6a8.8,8.8,0,0,1-6.6,3,6.1,6.1,0,0,1-4.5-1.5,5,5,0,0,1-1.7-3.8c0-2.6,1.6-4.5,4.6-5.9a7.2,7.2,0,0,1-2.2-4.7,4.4,4.4,0,0,1,1.3-3.2,4.8,4.8,0,0,1,3.5-1.3,3.9,3.9,0,0,1,3.1,1.1,3.6,3.6,0,0,1,1.1,2.8,4.7,4.7,0,0,1-1.1,3.3,11.8,11.8,0,0,1-3.6,2.4c1.4,1.5,3.4,3.4,6.1,6a11.8,11.8,0,0,0,1.8-6h1.3a12.3,12.3,0,0,1-2.3,6.8c1.6,1.6,2.8,2.8,3.8,3.6Zm-3.5-3.4c-3-3-5.2-5.1-6.4-6.5-2.8,1.2-4.1,2.8-4.1,4.9a3.8,3.8,0,0,0,1.3,3,5.2,5.2,0,0,0,3.6,1.2A7.6,7.6,0,0,0,513.8,187.5Zm-6.1-7.9a11.1,11.1,0,0,0,3.4-2.1,3.7,3.7,0,0,0,.9-2.5,2.9,2.9,0,0,0-.9-2.2,2.9,2.9,0,0,0-2.1-.8,3.6,3.6,0,0,0-2.5,1,3.7,3.7,0,0,0-.9,2.5C505.6,176.6,506.3,178,507.7,179.6Z" fill="gray"/><path d="M531.2,183v7.9h-1.3V171.2h4.7a7.3,7.3,0,0,1,4.7,1.4,5.3,5.3,0,0,1,1.6,4.1,5.8,5.8,0,0,1-1.8,4.5A6.9,6.9,0,0,1,534,183Zm0-10.5v9.3H534a6.1,6.1,0,0,0,4.1-1.3,4.9,4.9,0,0,0,1.4-3.6c0-3-1.7-4.4-5.1-4.4Z" fill="gray"/><path d="M545.2,190.9V171.2h9.2v1.3h-7.9v7.9h7.3v1.2h-7.3v8.1h8.3v1.2Z" fill="gray"/><path d="M569.3,190.9l-2.6-5.8a8.3,8.3,0,0,0-1.6-2.4,3.2,3.2,0,0,0-2-.6h-2.5v8.8h-1.4V171.2h5.5a5.8,5.8,0,0,1,4.1,1.4,4.8,4.8,0,0,1,1.5,3.7,5.4,5.4,0,0,1-1.2,3.6,5.6,5.6,0,0,1-3.4,1.8h0a5.7,5.7,0,0,1,2.3,2.8l2.9,6.3Zm-8.7-18.4v8.4H564a5.2,5.2,0,0,0,3.6-1.2,4.1,4.1,0,0,0,1.3-3.2,3.8,3.8,0,0,0-1.2-3,4.9,4.9,0,0,0-3.4-1Z" fill="gray"/><path d="M574.3,190.2v-1.5a7.7,7.7,0,0,0,4.3,1.3,5.8,5.8,0,0,0,3.5-.9,3.4,3.4,0,0,0,1.2-2.7,3.2,3.2,0,0,0-.9-2.4,12.7,12.7,0,0,0-3.4-2.5c-2-1.2-3.3-2.1-3.8-2.9a4.3,4.3,0,0,1-.8-2.7,4.6,4.6,0,0,1,1.6-3.6,6.5,6.5,0,0,1,4.3-1.4,10.3,10.3,0,0,1,3.5.6v1.4a8.7,8.7,0,0,0-3.7-.8,4.3,4.3,0,0,0-3.1,1,3.4,3.4,0,0,0-1.2,2.6,3.6,3.6,0,0,0,.8,2.4,14.1,14.1,0,0,0,3.5,2.4,13.5,13.5,0,0,1,3.6,2.8,4.2,4.2,0,0,1,1,2.8,4.9,4.9,0,0,1-1.6,3.7,6.4,6.4,0,0,1-4.5,1.5,7.4,7.4,0,0,1-2.3-.4A5.7,5.7,0,0,1,574.3,190.2Z" fill="gray"/><path d="M597,191.3a8.8,8.8,0,0,1-6.7-2.8,12,12,0,0,1,.1-14.8,8.8,8.8,0,0,1,7-2.8,8.2,8.2,0,0,1,6.4,2.7,10,10,0,0,1,2.5,7.2,11.7,11.7,0,0,1-2.5,7.7A9,9,0,0,1,597,191.3Zm.1-19.2a6.9,6.9,0,0,0-5.6,2.5,9.4,9.4,0,0,0-2.3,6.5,9.6,9.6,0,0,0,2.1,6.5A7.3,7.3,0,0,0,597,190a7.2,7.2,0,0,0,5.7-2.4,11.1,11.1,0,0,0,.1-13.1A7.2,7.2,0,0,0,597.1,172.1Z" fill="gray"/><path d="M624.2,190.9,612.5,175l-.6-1-.2-.3h-.1a2.8,2.8,0,0,1,.1.9v16.3h-1.4V171.2h1.1L623,187c.3.3.5.8.9,1.3h0V171.2h1.3v19.7Z" fill="gray"/><path d="M643.1,190.9l-2.2-6.1h-8.6l-2.2,6.1h-1.5l7.4-19.7h1.3l7.3,19.7Zm-6-16.5-.3-.8a1.9,1.9,0,0,0-.2-.7h0l-.5,1.5-3.3,9.1h7.6Z" fill="gray"/><path d="M648,190.9V171.2h1.3v18.5h7.9v1.2Z" fill="gray"/><path d="M673.9,172.5v18.4h-1.3V172.5h-5.7v-1.3h12.7v1.3Z" fill="gray"/><path d="M693.1,190.9l-2.7-5.8a6.7,6.7,0,0,0-1.6-2.4,3.2,3.2,0,0,0-2-.6h-2.5v8.8H683V171.2h5.5a6,6,0,0,1,4.1,1.4,4.8,4.8,0,0,1,1.4,3.7,5.1,5.1,0,0,1-4.6,5.4h0c.8.3,1.5,1.2,2.3,2.8l2.9,6.3Zm-8.8-18.4v8.4h3.4a5.2,5.2,0,0,0,3.6-1.2,4.1,4.1,0,0,0,1.3-3.2,3.8,3.8,0,0,0-1.2-3,4.8,4.8,0,0,0-3.4-1Z" fill="gray"/><path d="M711.5,190.9l-2.3-6.1h-8.6l-2.2,6.1h-1.5l7.4-19.7h1.3l7.4,19.7Zm-6.1-16.5a2.4,2.4,0,0,1-.2-.8,1.9,1.9,0,0,1-.2-.7h-.1a13.1,13.1,0,0,1-.5,1.5l-3.3,9.1h7.6Z" fill="gray"/><path d="M716.3,190.9V171.2h1.4v19.7Z" fill="gray"/><path d="M736.7,190.9,724.9,175l-.6-1-.2-.3h0v17.2h-1.4V171.2h1.1L735.4,187a7.3,7.3,0,0,1,.9,1.3h.1a10.9,10.9,0,0,1-.1-1.7V171.2h1.3v19.7Z" fill="gray"/><path d="M742.7,190.9V171.2h1.4v19.7Z" fill="gray"/><path d="M763.1,190.9,751.3,175l-.6-1-.2-.3h0v17.2h-1.4V171.2h1.1L761.8,187a7.3,7.3,0,0,1,.9,1.3h0V171.2H764v19.7Z" fill="gray"/><path d="M783.3,189.5a12,12,0,0,1-6.2,1.8,8.7,8.7,0,0,1-6.6-2.8,10.4,10.4,0,0,1-2.4-7.2,10.6,10.6,0,0,1,2.6-7.4,9.2,9.2,0,0,1,7.2-3,12.4,12.4,0,0,1,5,1v1.5a11.1,11.1,0,0,0-5.2-1.3,7.6,7.6,0,0,0-6,2.6,9.1,9.1,0,0,0-2.2,6.4,9.7,9.7,0,0,0,2.1,6.6,7.5,7.5,0,0,0,5.7,2.3,10.2,10.2,0,0,0,4.7-1.1v-6.5h-4.7v-1.3h6Z" fill="gray"/></svg>